<?xml version="1.0" standalone="no"?>
<!DOCTYPE svg PUBLIC "-//W3C//DTD SVG 20010904//EN"
 "http://www.w3.org/TR/2001/REC-SVG-20010904/DTD/svg10.dtd">
<svg version="1.0" xmlns="http://www.w3.org/2000/svg"
 width="774.000000pt" height="864.000000pt" viewBox="0 0 774.000000 864.000000"
 preserveAspectRatio="xMidYMid meet">

<g transform="translate(0.000000,864.000000) scale(0.100000,-0.100000)"
fill="#000000" stroke="none">
<path d="M1476 8570 c-335 -42 -640 -182 -832 -382 -165 -171 -246 -333 -279
-555 -61 -403 75 -762 395 -1046 116 -103 331 -248 699 -471 l193 -118 45 51
c81 93 92 96 360 96 127 0 229 3 227 6 -7 13 -236 160 -479 309 -400 245 -587
373 -692 474 -162 155 -255 298 -305 471 -20 71 -23 101 -22 260 0 166 2 187
27 268 67 218 190 374 362 457 114 56 186 71 365 77 121 4 174 2 245 -12 121
-22 246 -71 331 -128 218 -144 424 -482 489 -801 9 -44 18 -83 21 -88 7 -10
61 -11 68 0 5 8 -40 786 -49 859 -9 61 -49 91 -196 145 -131 49 -276 87 -424
114 -104 18 -444 27 -549 14z"/>
<path d="M3140 5884 c-293 -18 -543 -21 -928 -10 l-313 9 3 -39 3 -39 136 -7
c278 -14 372 -65 416 -228 16 -60 17 -182 20 -1680 3 -1021 0 -1657 -6 -1730
-20 -231 -64 -294 -229 -334 -51 -13 2 -14 496 -15 303 -1 552 1 552 3 0 2
-34 12 -77 21 -190 42 -265 115 -292 286 -7 43 -11 611 -11 1704 1 1748 0
1738 49 1832 53 104 131 132 392 140 271 8 422 -20 587 -108 267 -142 438
-384 509 -719 26 -123 26 -480 0 -598 -31 -142 -75 -256 -133 -351 l-27 -44
59 33 c32 18 77 43 99 56 57 33 280 128 348 150 67 21 72 27 110 150 73 230
83 522 27 753 -28 111 -115 290 -178 362 -97 112 -187 181 -332 254 -302 152
-621 189 -1280 149z"/>
<path d="M226 5301 c-12 -19 93 -1061 111 -1098 14 -29 34 -43 137 -93 197
-95 378 -150 611 -186 147 -22 479 -23 627 -1 209 31 480 117 493 156 5 17 4
161 -2 161 -2 0 -27 -18 -55 -41 -71 -56 -217 -124 -318 -149 -109 -27 -307
-36 -422 -21 -203 27 -380 99 -523 215 -243 195 -462 571 -568 976 -21 83 -23
85 -54 88 -17 2 -34 -1 -37 -7z"/>
<path d="M5445 4178 c-341 -34 -756 -174 -1042 -351 -327 -203 -615 -521 -764
-842 -147 -319 -205 -717 -163 -1117 l7 -58 253 0 c235 0 254 1 254 18 -1 9
-7 58 -16 107 -21 126 -30 542 -15 686 34 330 125 603 276 830 198 297 472
479 845 561 95 20 131 23 365 22 294 0 364 -10 586 -84 551 -183 961 -658
1124 -1300 58 -230 69 -332 69 -650 0 -260 -2 -310 -22 -425 -127 -741 -559
-1226 -1203 -1352 -145 -28 -477 -25 -619 6 -271 58 -519 181 -718 356 l-63
55 -276 0 -276 0 19 -22 c38 -42 201 -173 289 -231 106 -69 255 -146 375 -193
385 -148 887 -170 1332 -58 767 193 1397 794 1587 1514 48 182 65 321 65 525
-1 346 -69 636 -225 946 -256 513 -719 881 -1274 1012 -217 52 -525 70 -770
45z"/>
<path d="M3800 3620 c-152 -56 -383 -75 -547 -47 -82 15 -93 10 -93 -39 0 -30
3 -33 48 -44 58 -14 402 -25 474 -15 51 7 56 11 126 91 40 46 72 83 70 83 -2
-1 -37 -14 -78 -29z"/>
<path d="M1928 1554 c-55 -28 -59 -33 -22 -26 16 3 30 -1 35 -9 5 -8 9 -129 9
-270 0 -269 0 -271 -45 -282 -11 -2 18 -5 65 -6 75 -1 82 1 60 12 l-25 13 -3
297 c-2 228 -5 297 -15 297 -6 -1 -33 -12 -59 -26z"/>
<path d="M4530 1558 c-57 -29 -88 -88 -99 -188 -7 -72 -18 -90 -54 -90 -10 0
-15 -4 -12 -10 3 -5 17 -10 30 -10 31 0 35 -15 35 -144 0 -117 -7 -140 -45
-149 -11 -3 25 -5 80 -4 55 0 87 2 70 4 -53 8 -55 14 -55 161 l0 135 55 -6
c49 -5 55 -4 55 13 0 17 -6 18 -55 13 l-55 -6 0 78 c0 90 14 146 46 180 31 34
82 34 114 0 31 -33 73 -34 68 -3 -7 50 -104 63 -178 26z"/>
<path d="M4822 1573 c-62 -12 -122 -118 -122 -215 0 -52 -15 -78 -45 -78 -14
0 -25 -4 -25 -10 0 -5 13 -10 29 -10 17 0 31 -6 35 -16 3 -9 6 -66 6 -128 0
-117 -7 -140 -45 -149 -11 -3 25 -5 80 -4 55 0 87 2 70 4 -53 8 -55 15 -55
160 l0 135 55 -4 c48 -4 55 -2 55 14 0 16 -6 17 -55 12 l-55 -7 0 78 c0 90 14
146 46 180 31 34 82 34 114 0 31 -33 73 -34 68 -3 -5 39 -73 57 -156 41z"/>
<path d="M225 1502 c-48 -22 -63 -39 -75 -83 -21 -72 14 -126 132 -203 72 -47
108 -95 108 -142 0 -69 -35 -104 -106 -104 -55 0 -91 28 -125 95 l-31 60 7
-70 c8 -75 11 -79 65 -95 56 -16 113 -12 160 13 58 29 82 63 82 118 1 68 -22
100 -114 161 -46 31 -91 64 -101 75 -40 46 -38 127 5 158 30 20 97 19 125 -3
12 -9 31 -37 42 -62 l21 -45 0 57 c0 68 -11 78 -99 84 -41 4 -67 0 -96 -14z"/>
<path d="M3935 1507 c-66 -22 -99 -43 -142 -90 -43 -46 -73 -122 -73 -181 0
-61 32 -145 73 -192 60 -68 106 -89 202 -89 94 0 154 24 218 88 132 132 97
364 -68 449 -50 26 -154 33 -210 15z m150 -26 c97 -44 151 -153 143 -285 -5
-78 -29 -135 -75 -178 -36 -35 -73 -48 -132 -48 -131 0 -231 127 -231 294 0
109 35 181 105 216 51 25 136 26 190 1z"/>
<path d="M2385 1501 c-44 -4 -70 -8 -57 -9 13 -1 32 -7 43 -12 18 -10 19 -24
19 -249 0 -254 0 -255 -50 -264 -14 -2 29 -4 95 -4 72 0 104 2 80 6 -22 4 -46
10 -52 14 -10 6 -13 68 -13 252 0 267 -3 255 62 255 103 0 167 -114 119 -212
-24 -51 -48 -67 -110 -78 l-46 -8 45 -1 c51 -1 115 25 147 60 69 76 52 200
-34 235 -43 18 -139 24 -248 15z"/>
<path d="M1350 1455 c-18 -22 -1 -50 31 -50 20 0 24 5 24 30 0 23 -5 31 -21
33 -11 2 -27 -4 -34 -13z"/>
<path d="M4960 1455 c-18 -22 -1 -50 31 -50 20 0 24 5 24 30 0 23 -5 31 -21
33 -11 2 -27 -4 -34 -13z"/>
<path d="M625 1291 c-116 -52 -139 -199 -46 -292 58 -58 141 -64 211 -16 53
36 73 70 78 134 9 142 -116 232 -243 174z m124 -26 c44 -37 64 -100 59 -181
-4 -58 -8 -70 -32 -90 -42 -37 -100 -33 -140 10 -71 74 -76 236 -9 275 33 19
90 13 122 -14z"/>
<path d="M1068 1291 c-71 -23 -128 -100 -128 -172 0 -44 37 -117 72 -142 40
-30 115 -34 172 -9 25 12 46 25 46 31 0 5 -12 3 -27 -5 -37 -18 -87 -18 -129
2 -63 30 -94 147 -60 229 17 40 42 55 90 55 27 0 39 -6 56 -30 24 -33 54 -39
64 -13 17 42 -84 77 -156 54z"/>
<path d="M1649 1285 c-44 -14 -99 -54 -99 -73 0 -5 7 -15 15 -22 18 -15 41 0
51 33 17 57 70 75 98 35 10 -14 16 -44 16 -79 l0 -56 -74 -27 c-41 -15 -81
-35 -90 -45 -23 -25 -20 -67 6 -85 31 -22 58 -20 112 9 l47 25 9 -25 c12 -31
23 -31 80 1 36 20 39 24 17 19 -51 -10 -57 5 -57 135 0 98 -3 121 -17 138 -24
29 -59 34 -114 17z m81 -223 c0 -47 -1 -50 -39 -66 -50 -23 -81 -10 -81 35 0
27 6 33 53 54 28 13 55 24 60 24 4 1 7 -21 7 -47z"/>
<path d="M2899 1285 c-44 -14 -99 -54 -99 -73 0 -5 7 -15 15 -22 18 -15 41 0
51 33 17 57 70 75 98 35 10 -14 16 -44 16 -79 l0 -56 -74 -27 c-41 -15 -81
-35 -90 -45 -23 -25 -20 -67 6 -85 32 -23 65 -20 115 9 l43 26 10 -26 c12 -31
23 -31 80 1 36 20 39 24 17 19 -51 -10 -57 5 -57 135 0 98 -3 121 -17 138 -24
29 -59 34 -114 17z m81 -223 c0 -47 -1 -50 -39 -66 -50 -23 -81 -10 -81 35 0
27 6 33 53 54 28 13 55 24 60 24 4 1 7 -21 7 -47z"/>
<path d="M5255 1288 c-74 -27 -125 -97 -125 -169 0 -44 37 -117 72 -142 40
-30 115 -34 172 -9 25 12 46 25 46 31 0 5 -12 3 -27 -5 -37 -18 -87 -18 -129
2 -63 30 -94 147 -60 229 17 40 42 55 90 55 27 0 39 -6 56 -30 24 -33 54 -39
64 -13 17 44 -88 78 -159 51z"/>
<path d="M5592 1279 c-89 -44 -125 -152 -80 -238 29 -57 64 -82 121 -88 34 -4
57 0 91 17 25 12 46 26 46 31 0 5 -13 3 -30 -6 -94 -48 -189 23 -190 143 l0
42 110 0 110 0 0 25 c0 86 -84 120 -178 74z m100 -16 c10 -9 18 -27 18 -40 0
-22 -3 -23 -80 -23 -87 0 -92 7 -47 58 25 27 82 30 109 5z"/>
<path d="M1338 1267 c-27 -11 -48 -24 -48 -29 0 -4 12 -2 26 4 38 18 44 0 44
-133 0 -121 -3 -132 -45 -142 -11 -2 21 -5 70 -5 50 0 81 3 70 5 -43 11 -45
19 -45 174 0 113 -3 149 -12 148 -7 -1 -34 -10 -60 -22z"/>
<path d="M3127 1275 c12 -9 56 -85 97 -171 l76 -155 -27 -65 c-43 -109 -87
-144 -142 -114 -24 12 -57 -11 -48 -34 11 -29 81 -21 120 13 46 41 75 98 152
305 74 198 80 210 110 225 15 7 0 10 -60 9 -47 0 -68 -3 -51 -7 52 -11 54 -30
17 -143 -18 -57 -37 -107 -42 -112 -8 -9 -119 206 -119 231 0 6 12 16 28 21
22 9 13 11 -53 11 -74 1 -78 0 -58 -14z"/>
<path d="M4948 1267 c-27 -11 -48 -24 -48 -29 0 -4 12 -2 26 4 38 18 44 0 44
-133 0 -121 -3 -132 -45 -142 -11 -2 18 -5 65 -6 75 -1 82 1 60 12 -25 12 -25
14 -28 165 -2 112 -6 152 -15 151 -6 -1 -33 -10 -59 -22z"/>
<path d="M200 250 l0 -30 935 0 935 0 0 30 0 30 -935 0 -935 0 0 -30z"/>
</g>
</svg>
