<?xml version="1.0" standalone="no"?>
<!DOCTYPE svg PUBLIC "-//W3C//DTD SVG 20010904//EN"
 "http://www.w3.org/TR/2001/REC-SVG-20010904/DTD/svg10.dtd">
<svg version="1.0" xmlns="http://www.w3.org/2000/svg"
 width="1563.000000pt" height="1563.000000pt" viewBox="0 0 1563.000000 1563.000000"
 preserveAspectRatio="xMidYMid meet">

<g transform="translate(0.000000,1563.000000) scale(0.100000,-0.100000)"
fill="#000000" stroke="none">
<path d="M5830 12526 c-317 -46 -583 -165 -775 -347 -178 -169 -275 -352 -310
-586 -53 -348 43 -668 276 -928 141 -156 303 -275 778 -564 l233 -143 45 51
c81 93 92 96 361 96 127 0 232 1 232 3 0 6 -323 214 -485 312 -442 269 -584
368 -716 499 -156 156 -232 277 -282 449 -19 67 -22 99 -21 257 0 166 2 187
27 268 88 286 272 462 539 518 126 25 329 26 453 0 119 -25 227 -68 312 -124
217 -144 423 -483 488 -801 9 -44 18 -83 21 -88 7 -10 61 -11 68 0 2 4 -8 207
-23 451 l-28 444 -34 32 c-61 56 -341 147 -584 191 -124 22 -450 28 -575 10z"/>
<path d="M7695 9854 c-395 -28 -645 -35 -895 -25 -146 6 -323 11 -393 11
l-128 0 3 -37 3 -38 130 -7 c284 -14 378 -65 422 -228 16 -60 17 -182 20
-1680 4 -1628 1 -1788 -32 -1897 -27 -92 -90 -144 -205 -169 -46 -10 37 -12
498 -13 303 -1 552 1 552 3 0 2 -34 12 -77 21 -190 42 -265 115 -292 286 -7
43 -11 611 -11 1704 1 1764 0 1744 52 1837 12 23 41 56 64 73 65 50 134 60
394 59 250 0 303 -9 459 -77 197 -85 371 -252 469 -451 94 -191 127 -374 119
-651 -8 -260 -52 -429 -153 -594 l-27 -45 44 26 c164 94 270 144 434 203 l90
33 24 58 c92 229 113 565 50 824 -27 111 -114 289 -177 362 -177 204 -423 329
-777 394 -66 12 -160 17 -350 19 -143 1 -282 1 -310 -1z"/>
<path d="M4605 9258 c-3 -7 17 -249 45 -537 36 -376 55 -534 67 -558 14 -29
34 -43 137 -93 298 -144 566 -202 926 -203 290 0 524 41 725 125 l80 34 3 87
c1 48 0 87 -3 87 -3 0 -29 -18 -57 -41 -71 -56 -217 -124 -318 -149 -109 -27
-307 -36 -422 -21 -204 27 -379 99 -524 215 -242 194 -460 570 -568 979 -20
80 -22 82 -54 85 -20 2 -34 -2 -37 -10z"/>
<path d="M9880 8143 c-520 -51 -991 -240 -1352 -543 -205 -171 -403 -426 -509
-655 -147 -320 -208 -735 -162 -1122 l6 -53 253 0 c235 0 254 1 254 18 -1 9
-7 58 -16 107 -21 126 -30 542 -15 686 34 330 125 603 276 830 198 297 474
480 840 559 127 28 454 39 602 21 399 -49 725 -210 999 -492 107 -111 163
-183 240 -310 145 -238 239 -507 291 -839 28 -179 25 -637 -5 -815 -134 -782
-615 -1285 -1306 -1366 -139 -16 -394 -6 -521 21 -265 56 -514 180 -713 355
l-63 55 -276 0 -276 0 19 -22 c38 -42 201 -173 289 -231 168 -111 375 -204
559 -251 437 -114 922 -91 1354 63 595 212 1076 665 1306 1228 53 129 97 292
122 448 23 149 23 450 0 600 -75 483 -312 931 -649 1226 -379 331 -829 493
-1357 487 -85 0 -171 -3 -190 -5z"/>
<path d="M8180 7580 c-152 -56 -397 -76 -552 -46 -77 15 -88 9 -88 -40 0 -31
2 -33 53 -44 79 -18 274 -27 402 -19 l114 7 33 38 c18 21 53 60 77 86 24 27
42 47 40 47 -2 -1 -38 -14 -79 -29z"/>
<path d="M6308 5514 c-55 -28 -59 -33 -22 -26 16 3 30 -1 35 -9 5 -8 9 -127 9
-265 0 -262 -2 -277 -45 -287 -11 -3 18 -5 65 -6 75 -1 82 1 60 12 l-25 13 -3
297 c-2 228 -5 297 -15 297 -6 -1 -33 -12 -59 -26z"/>
<path d="M8910 5518 c-52 -26 -86 -82 -95 -157 -14 -111 -14 -111 -45 -118
-34 -6 -30 -23 5 -23 31 0 35 -15 35 -144 0 -117 -7 -140 -45 -149 -11 -3 25
-5 80 -4 55 0 87 2 70 4 -53 8 -55 15 -55 160 l0 135 55 -4 c48 -4 55 -2 55
13 0 15 -7 17 -55 12 l-55 -6 0 72 c0 137 36 211 103 211 23 0 41 -8 57 -25
31 -33 73 -34 68 -3 -7 50 -104 63 -178 26z"/>
<path d="M9180 5518 c-52 -26 -86 -82 -95 -157 -14 -111 -14 -111 -45 -118
-34 -6 -30 -23 5 -23 31 0 35 -15 35 -144 0 -117 -7 -140 -45 -149 -11 -3 25
-5 80 -4 55 0 87 2 70 4 -53 8 -55 15 -55 160 l0 135 55 -4 c48 -4 55 -2 55
13 0 15 -7 17 -55 12 l-55 -6 0 72 c0 137 36 211 103 211 23 0 41 -8 57 -25
31 -33 73 -34 68 -3 -7 50 -104 63 -178 26z"/>
<path d="M4605 5462 c-48 -22 -63 -39 -75 -83 -21 -72 12 -124 131 -202 73
-48 109 -95 109 -143 0 -69 -35 -104 -106 -104 -55 0 -91 28 -125 95 l-31 60
7 -70 c8 -75 11 -79 65 -95 56 -16 113 -12 160 13 58 29 82 63 82 118 1 68
-22 100 -114 161 -46 31 -91 64 -101 75 -40 46 -38 127 5 158 30 20 97 19 125
-3 12 -9 31 -37 42 -62 l21 -45 0 57 c0 68 -11 78 -99 84 -41 4 -67 0 -96 -14z"/>
<path d="M8330 5471 c-20 -7 -12 -9 35 -10 148 -3 245 -115 245 -280 0 -154
-80 -251 -206 -251 -134 0 -234 125 -234 294 0 104 34 179 97 213 46 24 33 29
-14 5 -85 -44 -153 -153 -153 -246 0 -61 32 -145 73 -192 60 -68 106 -89 202
-89 94 0 154 24 218 88 133 133 98 364 -68 449 -44 23 -153 33 -195 19z"/>
<path d="M6765 5461 c-44 -4 -70 -8 -57 -9 13 -1 32 -7 43 -12 18 -10 19 -24
19 -249 0 -254 0 -255 -50 -264 -14 -2 29 -4 95 -4 72 0 104 2 80 6 -22 4 -46
10 -52 14 -10 6 -13 68 -13 252 0 267 -3 255 62 255 44 0 91 -26 113 -63 25
-42 25 -121 1 -163 -23 -39 -48 -54 -105 -64 l-46 -8 45 -1 c51 -1 115 25 147
60 69 76 52 200 -34 235 -43 18 -139 24 -248 15z"/>
<path d="M5730 5415 c-18 -22 -1 -50 31 -50 20 0 24 5 24 30 0 23 -5 31 -21
33 -11 2 -27 -4 -34 -13z"/>
<path d="M9340 5415 c-18 -22 -1 -50 31 -50 20 0 24 5 24 30 0 23 -5 31 -21
33 -11 2 -27 -4 -34 -13z"/>
<path d="M5005 5251 c-116 -52 -139 -199 -46 -292 58 -58 141 -64 211 -16 53
36 73 70 78 134 9 142 -116 232 -243 174z m124 -26 c44 -37 64 -100 59 -181
-4 -58 -8 -70 -32 -90 -42 -37 -100 -33 -140 10 -71 74 -76 236 -9 275 33 19
90 13 122 -14z"/>
<path d="M5445 5248 c-74 -27 -125 -97 -125 -169 0 -44 37 -117 72 -142 40
-30 115 -34 172 -9 25 12 46 25 46 31 0 5 -12 3 -27 -5 -37 -18 -87 -18 -129
2 -63 30 -94 147 -60 229 17 40 42 55 90 55 27 0 39 -6 56 -30 23 -32 57 -40
67 -14 17 44 -91 79 -162 52z"/>
<path d="M6029 5245 c-44 -14 -99 -54 -99 -73 0 -5 7 -15 15 -22 18 -15 41 0
51 33 17 57 70 75 98 35 10 -14 16 -44 16 -79 l0 -56 -74 -27 c-41 -15 -81
-35 -90 -45 -23 -25 -20 -67 6 -85 32 -23 65 -20 115 9 l43 26 10 -26 c12 -31
23 -31 80 1 36 20 39 24 17 19 -51 -10 -57 5 -57 135 0 98 -3 121 -17 138 -24
29 -59 34 -114 17z m81 -223 c0 -47 -1 -50 -39 -66 -50 -23 -81 -10 -81 35 0
27 6 33 53 54 28 13 55 24 60 24 4 1 7 -21 7 -47z"/>
<path d="M7279 5245 c-44 -14 -99 -54 -99 -73 0 -5 7 -15 15 -22 18 -15 41 0
51 33 17 57 70 75 98 35 10 -14 16 -44 16 -79 l0 -56 -74 -27 c-41 -15 -81
-35 -90 -45 -23 -25 -20 -67 6 -85 32 -23 65 -20 115 9 l43 26 10 -26 c12 -31
23 -31 80 1 36 20 39 24 17 19 -51 -10 -57 5 -57 135 0 98 -3 121 -17 138 -24
29 -59 34 -114 17z m81 -223 c0 -47 -1 -50 -39 -66 -50 -23 -81 -10 -81 35 0
27 6 33 53 54 28 13 55 24 60 24 4 1 7 -21 7 -47z"/>
<path d="M9635 5248 c-74 -27 -125 -97 -125 -169 0 -44 37 -117 72 -142 40
-30 115 -34 172 -9 25 12 46 25 46 31 0 5 -12 3 -27 -5 -37 -18 -87 -18 -129
2 -63 30 -94 147 -60 229 17 40 42 55 90 55 27 0 39 -6 56 -30 23 -32 57 -40
67 -14 17 44 -91 79 -162 52z"/>
<path d="M9972 5239 c-65 -33 -97 -87 -97 -165 0 -48 5 -69 21 -90 52 -71 128
-91 208 -56 25 12 46 26 46 32 0 6 -11 5 -30 -5 -94 -48 -189 23 -190 143 l0
42 110 0 110 0 0 25 c0 86 -84 120 -178 74z m100 -16 c10 -9 18 -27 18 -40 0
-22 -3 -23 -80 -23 -87 0 -92 7 -47 58 25 27 82 30 109 5z"/>
<path d="M5718 5227 c-27 -11 -48 -25 -48 -29 0 -5 9 -4 21 2 40 22 49 -1 49
-130 0 -122 -3 -133 -45 -143 -11 -2 18 -5 65 -6 75 -1 82 1 60 12 -25 12 -25
14 -28 165 -2 112 -6 152 -15 151 -6 -1 -33 -10 -59 -22z"/>
<path d="M7507 5235 c12 -9 56 -85 97 -171 l76 -155 -27 -65 c-44 -112 -80
-140 -147 -115 -18 7 -28 6 -36 -4 -42 -50 58 -64 113 -16 46 41 75 99 151
304 73 196 81 211 111 226 15 7 0 10 -60 9 -47 0 -68 -3 -51 -7 52 -11 54 -30
17 -143 -18 -57 -37 -107 -42 -112 -8 -9 -119 208 -119 232 0 6 12 15 28 20
22 9 13 11 -53 11 -74 1 -78 0 -58 -14z"/>
<path d="M9328 5227 c-27 -11 -48 -25 -48 -29 0 -5 9 -4 21 2 40 22 49 -1 49
-130 0 -122 -3 -133 -45 -143 -11 -2 18 -5 65 -6 75 -1 82 1 60 12 -25 12 -25
14 -28 165 -2 112 -6 152 -15 151 -6 -1 -33 -10 -59 -22z"/>
<path d="M4580 4210 l0 -30 935 0 935 0 0 30 0 30 -935 0 -935 0 0 -30z"/>
</g>
</svg>
